<?xml version="1.0" standalone="no"?>
<!DOCTYPE svg PUBLIC "-//W3C//DTD SVG 20010904//EN"
 "http://www.w3.org/TR/2001/REC-SVG-20010904/DTD/svg10.dtd">
<svg version="1.0" xmlns="http://www.w3.org/2000/svg"
 width="512.000000pt" height="512.000000pt" viewBox="0 0 512.000000 512.000000"
 preserveAspectRatio="xMidYMid meet">
<metadata>
Created by potrace 1.11, written by Peter Selinger 2001-2013
</metadata>
<g transform="translate(0.000000,512.000000) scale(0.100000,-0.100000)"
fill="#000000" stroke="none">
<path d="M2265 5034 c-46 -12 -51 -16 -30 -24 11 -4 26 -3 32 2 8 7 50 8 110
3 90 -6 119 -1 62 11 -39 8 -153 13 -174 8z"/>
<path d="M2610 5021 c50 -22 70 -25 70 -12 0 5 -12 11 -27 14 -88 18 -88 18
-43 -2z"/>
<path d="M2720 5031 c-28 -6 -16 -9 60 -14 136 -9 200 -18 200 -28 0 -5 23 -9
50 -9 61 0 66 16 8 24 -24 3 -72 10 -108 16 -91 15 -169 19 -210 11z"/>
<path d="M2112 5008 c-22 -22 -12 -28 26 -14 20 8 46 17 57 19 11 3 0 5 -25 6
-26 0 -51 -4 -58 -11z"/>
<path d="M2030 4990 c0 -5 9 -10 19 -10 11 0 23 5 26 10 4 6 -5 10 -19 10 -14
0 -26 -4 -26 -10z"/>
<path d="M2318 4993 c12 -2 30 -2 40 0 9 3 -1 5 -23 4 -22 0 -30 -2 -17 -4z"/>
<path d="M2538 4993 c7 -3 16 -2 19 1 4 3 -2 6 -13 5 -11 0 -14 -3 -6 -6z"/>
<path d="M1960 4976 c0 -9 30 -14 35 -6 4 6 -3 10 -14 10 -12 0 -21 -2 -21 -4z"/>
<path d="M3108 4973 c12 -2 22 -11 22 -19 0 -14 12 -19 23 -8 14 15 -7 34 -37
33 -23 -1 -25 -3 -8 -6z"/>
<path d="M1815 4938 c-33 -11 -73 -26 -90 -33 -27 -12 -27 -14 -7 -14 12 -1
22 4 22 9 0 6 23 10 51 10 31 0 56 6 65 15 9 8 24 15 34 15 10 0 22 5 25 10 9
15 -33 10 -100 -12z"/>
<path d="M3197 4953 c-15 -15 -5 -23 28 -23 19 0 35 -4 35 -9 0 -14 38 -20 68
-11 24 7 25 8 4 9 -12 1 -32 6 -45 13 -60 31 -77 35 -90 21z"/>
<path d="M1955 4940 c-3 -5 1 -10 9 -10 8 0 18 5 21 10 3 6 -1 10 -9 10 -8 0
-18 -4 -21 -10z"/>
<path d="M1860 4900 c0 -5 7 -10 15 -10 8 0 15 5 15 10 0 6 -7 10 -15 10 -8 0
-15 -4 -15 -10z"/>
<path d="M3130 4900 c0 -5 7 -10 15 -10 8 0 15 5 15 10 0 6 -7 10 -15 10 -8 0
-15 -4 -15 -10z"/>
<path d="M3193 4896 c-13 -6 -23 -17 -23 -24 0 -8 3 -12 8 -10 4 3 22 11 40
18 17 8 32 18 32 22 0 11 -30 8 -57 -6z"/>
<path d="M2025 4889 c-10 -14 -1 -21 19 -13 9 3 13 10 10 15 -7 12 -21 11 -29
-2z"/>
<path d="M3360 4891 c0 -12 29 -23 41 -15 18 10 9 24 -16 24 -14 0 -25 -4 -25
-9z"/>
<path d="M1800 4870 c0 -5 9 -10 20 -10 11 0 20 5 20 10 0 6 -9 10 -20 10 -11
0 -20 -4 -20 -10z"/>
<path d="M3265 4870 c-4 -6 7 -10 27 -9 27 0 30 2 13 9 -27 12 -33 12 -40 0z"/>
<path d="M3455 4866 c11 -8 25 -16 32 -16 6 0 13 -5 15 -11 2 -6 15 -9 28 -7
24 3 23 4 -10 20 -19 9 -46 19 -60 23 -24 7 -24 7 -5 -9z"/>
<path d="M1583 4856 c-26 -12 -30 -26 -8 -26 8 0 15 5 15 10 0 6 9 10 21 10
11 0 17 5 14 10 -7 12 -12 11 -42 -4z"/>
<path d="M1878 4856 c-10 -7 -15 -16 -12 -19 8 -7 54 14 54 25 0 12 -23 9 -42
-6z"/>
<path d="M1640 4850 c0 -5 7 -10 15 -10 8 0 15 5 15 10 0 6 -7 10 -15 10 -8 0
-15 -4 -15 -10z"/>
<path d="M3135 4840 c4 -6 11 -8 16 -5 14 9 11 15 -7 15 -8 0 -12 -5 -9 -10z"/>
<path d="M3205 4840 c3 -5 15 -10 26 -10 10 0 19 5 19 10 0 6 -12 10 -26 10
-14 0 -23 -4 -19 -10z"/>
<path d="M3435 4840 c3 -5 8 -10 11 -10 2 0 4 5 4 10 0 6 -5 10 -11 10 -5 0
-7 -4 -4 -10z"/>
<path d="M1470 4799 c-30 -16 -59 -29 -65 -29 -6 0 -21 -9 -33 -20 -12 -11
-27 -20 -33 -20 -7 0 -9 -3 -6 -6 3 -4 21 0 39 9 66 31 111 47 129 47 10 0 23
9 29 19 20 39 14 39 -60 0z"/>
<path d="M3583 4806 c13 -14 31 -26 40 -26 9 0 19 -4 22 -10 3 -5 12 -10 20
-10 16 0 84 -42 85 -52 0 -5 -7 -8 -15 -8 -8 0 -15 -4 -15 -10 0 -5 7 -10 15
-10 8 0 15 5 15 10 0 6 11 10 25 10 14 0 25 -4 25 -10 0 -5 9 -10 20 -10 11 0
20 3 20 8 -1 5 -231 125 -272 140 -5 2 2 -8 15 -22z"/>
<path d="M1572 4788 c-16 -16 -15 -28 3 -28 8 0 15 9 15 20 0 23 -2 24 -18 8z"/>
<path d="M1490 4740 c0 -5 7 -10 15 -10 8 0 15 5 15 10 0 6 -7 10 -15 10 -8 0
-15 -4 -15 -10z"/>
<path d="M3610 4741 c0 -16 51 -43 68 -36 15 6 14 8 -4 15 -12 5 -25 13 -29
19 -8 13 -35 15 -35 2z"/>
<path d="M1448 4733 c7 -3 16 -2 19 1 4 3 -2 6 -13 5 -11 0 -14 -3 -6 -6z"/>
<path d="M1590 4720 c0 -5 7 -10 15 -10 8 0 15 5 15 10 0 6 -7 10 -15 10 -8 0
-15 -4 -15 -10z"/>
<path d="M1395 4710 c3 -5 13 -10 21 -10 8 0 14 5 14 10 0 6 -9 10 -21 10 -11
0 -17 -4 -14 -10z"/>
<path d="M1267 4694 c-16 -9 -27 -18 -24 -20 9 -9 56 8 61 22 7 18 -2 17 -37
-2z"/>
<path d="M1345 4700 c-9 -15 -1 -23 21 -18 15 3 16 4 1 16 -11 9 -17 10 -22 2z"/>
<path d="M1450 4693 c-24 -12 -24 -13 -3 -13 12 0 25 5 28 11 11 16 2 17 -25
2z"/>
<path d="M1540 4693 c1 -23 20 -34 51 -30 30 4 32 5 12 12 -13 4 -23 11 -23
16 0 5 -9 9 -20 9 -11 0 -20 -3 -20 -7z"/>
<path d="M2830 4680 c0 -5 5 -10 11 -10 5 0 8 -4 4 -9 -3 -6 -21 -4 -45 4 -32
11 -49 12 -90 2 -46 -11 -52 -15 -66 -54 -10 -25 -14 -55 -11 -72 4 -19 1 -33
-8 -41 -17 -14 -20 -40 -5 -40 6 0 15 10 20 23 l9 22 0 -22 c1 -12 -8 -38 -18
-57 -11 -19 -17 -37 -14 -39 3 -3 -4 -19 -16 -35 -12 -17 -21 -37 -21 -45 0
-9 -4 -19 -10 -22 -5 -3 -10 -16 -10 -29 0 -12 -5 -27 -11 -33 -24 -24 41
-152 90 -177 53 -28 116 -46 160 -46 35 0 42 -3 37 -16 -3 -9 -6 -18 -6 -20 0
-24 -114 -19 -182 7 -29 12 -110 93 -121 122 -6 17 -15 18 -74 12 -38 -4 -72
-11 -77 -16 -6 -5 -20 -9 -33 -9 -37 0 -139 -45 -247 -109 -80 -47 -221 -184
-282 -274 -16 -23 -37 -51 -46 -61 -10 -11 -18 -23 -18 -27 0 -3 -17 -37 -38
-75 -54 -100 -81 -165 -110 -273 -23 -85 -25 -116 -26 -276 -1 -126 3 -194 13
-228 l14 -48 41 3 41 3 6 65 c11 111 39 244 67 315 22 57 94 164 139 206 120
114 279 202 331 183 18 -6 27 -17 26 -29 -2 -30 -37 -278 -66 -460 -24 -149
-9 -662 28 -965 25 -201 27 -220 21 -220 -3 0 -12 12 -20 28 -12 24 -146 267
-194 352 -11 19 -37 67 -58 105 -27 49 -71 102 -146 178 -60 59 -112 107 -117
107 -5 0 -17 -9 -26 -19 -16 -17 -16 -22 -2 -48 8 -16 35 -48 59 -70 45 -41
45 -42 24 -56 -43 -27 -143 -52 -207 -52 -53 0 -78 6 -135 33 -103 50 -151 62
-244 62 -98 0 -139 -10 -240 -57 -137 -63 -240 -158 -358 -330 -18 -27 -66
-123 -103 -208 -34 -77 -90 -273 -90 -315 0 -16 -4 -31 -10 -35 -11 -7 -18
146 -8 190 4 17 11 82 17 145 10 103 22 173 49 280 25 100 87 236 157 345 75
117 242 253 375 305 75 30 99 34 201 38 96 3 130 0 195 -17 74 -20 83 -26 136
-83 l56 -62 18 38 c21 43 17 54 -43 103 -39 32 -42 33 -58 16 -17 -16 -17 -16
-11 4 5 17 0 23 -37 37 -23 9 -61 16 -82 16 -22 0 -58 5 -80 11 -40 11 -195
-2 -240 -20 -11 -5 -40 -15 -65 -22 -61 -17 -137 -52 -183 -83 -21 -14 -42
-26 -47 -26 -5 0 -7 -7 -4 -15 5 -11 2 -13 -11 -9 -9 4 -20 3 -24 -2 -3 -5
-31 -29 -61 -54 -63 -51 -95 -87 -144 -156 -42 -60 -126 -223 -126 -244 0 -9
-4 -20 -8 -25 -5 -6 -14 -28 -20 -50 -24 -88 -42 -163 -46 -191 -2 -16 -8 -49
-14 -74 -17 -75 -26 -230 -13 -230 6 0 11 -12 11 -26 0 -16 4 -23 12 -18 7 4
8 3 4 -4 -9 -15 41 -129 60 -136 8 -3 14 -15 14 -26 0 -27 19 -62 29 -55 5 2
12 31 16 62 18 150 95 385 170 519 37 65 121 182 159 219 141 139 267 203 431
221 56 6 144 -17 232 -59 83 -40 93 -42 171 -41 46 1 93 6 105 12 12 5 48 20
80 32 l58 23 31 -29 c16 -16 34 -38 39 -49 5 -11 26 -50 47 -87 20 -37 56
-102 79 -145 64 -118 116 -213 145 -263 14 -25 39 -70 55 -100 17 -30 40 -73
53 -95 57 -98 69 -128 93 -226 41 -170 50 -217 44 -231 -3 -8 -22 -15 -46 -16
-23 -2 -53 -7 -67 -12 -14 -6 -39 -10 -56 -10 -34 0 -74 -10 -190 -46 -43 -13
-86 -24 -98 -24 -11 0 -43 -11 -72 -25 -28 -14 -57 -25 -64 -25 -12 0 -117
-43 -211 -86 -28 -13 -57 -24 -62 -24 -6 0 -11 -4 -11 -10 0 -5 -6 -10 -14
-10 -7 0 -53 -25 -102 -55 -49 -31 -101 -61 -117 -68 -15 -8 -25 -16 -22 -19
3 -3 -8 -10 -24 -16 -17 -6 -31 -16 -31 -21 0 -6 -7 -11 -15 -11 -8 0 -23 -9
-32 -20 -10 -11 -22 -20 -28 -20 -5 0 -21 -12 -35 -27 l-25 -26 30 7 c20 4 25
3 16 -3 -11 -7 -9 -14 12 -35 14 -14 30 -26 35 -26 4 0 17 -8 28 -17 36 -32
68 -47 72 -34 2 6 8 11 14 11 6 0 8 -6 5 -14 -7 -17 28 -51 42 -41 6 3 11 1
11 -4 0 -6 6 -11 13 -11 8 0 22 -8 31 -19 9 -10 37 -24 62 -31 24 -7 47 -17
50 -21 7 -12 84 -49 101 -49 7 0 13 -4 13 -9 0 -5 19 -11 42 -15 23 -4 62 -17
87 -30 25 -12 78 -30 116 -40 39 -10 78 -22 87 -27 10 -5 36 -9 57 -9 22 0 43
-4 46 -10 3 -5 22 -10 41 -10 19 0 34 -4 34 -10 0 -6 32 -10 75 -10 44 0 75
-4 75 -10 0 -14 587 -13 595 1 4 5 33 9 66 9 33 0 59 4 59 10 0 6 23 10 50 10
28 0 50 5 50 10 0 6 15 10 34 10 19 0 38 5 41 10 3 6 18 10 32 10 25 0 57 8
128 32 17 5 46 14 65 18 19 5 36 13 38 19 2 5 9 8 17 5 7 -3 16 -1 20 5 3 6
15 11 26 11 11 0 29 9 40 19 12 11 41 25 65 32 35 11 43 17 38 31 -4 13 0 18
13 18 15 0 16 -2 3 -10 -13 -8 -12 -10 3 -10 10 0 28 5 40 12 21 11 21 11 2
20 -15 6 -12 7 12 4 18 -3 35 -1 38 4 3 6 1 10 -4 10 -6 0 -11 5 -11 11 0 6 7
8 16 5 19 -7 121 39 145 66 9 10 22 18 28 18 7 0 17 5 24 11 7 5 27 19 45 30
27 16 31 23 22 34 -9 11 -7 12 7 9 12 -3 45 16 93 52 87 66 148 124 132 124
-7 0 -12 4 -12 10 0 5 10 9 23 7 15 -1 22 3 21 15 -1 10 1 17 5 16 45 -5 39
16 -11 38 -24 10 -45 21 -48 24 -10 10 -121 60 -134 60 -7 0 -19 7 -26 15 -7
8 -20 15 -30 15 -10 0 -31 7 -46 15 -16 8 -38 15 -50 15 -11 0 -24 4 -30 9
-25 25 -299 98 -494 131 -127 22 -210 32 -290 36 -79 3 -268 6 -298 5 -7 -1
-33 -20 -57 -42 -67 -62 -54 -28 16 44 156 158 242 284 278 407 7 25 17 56 22
70 30 93 36 405 10 590 -34 247 -47 330 -66 435 -18 102 -20 526 -3 643 11 78
28 143 40 157 4 5 8 17 8 27 0 26 12 23 67 -18 77 -58 103 -91 103 -134 0 -31
-7 -44 -41 -75 -23 -20 -56 -43 -74 -51 -29 -12 -33 -18 -38 -64 -9 -78 -5
-83 67 -75 77 9 190 60 278 128 127 96 151 161 100 269 -17 35 -43 77 -57 92
-14 15 -25 31 -25 35 0 14 -193 195 -258 241 -34 25 -106 68 -159 95 -53 28
-98 55 -100 61 -2 6 8 16 21 23 36 20 43 61 15 84 -22 18 -22 19 -7 66 10 31
12 55 6 70 -6 17 -4 29 7 41 9 10 13 24 9 35 -6 14 -3 16 17 11 13 -3 18 -3
12 0 -19 8 -16 37 2 31 8 -4 17 -2 20 3 4 6 2 10 -3 10 -6 0 -1 17 9 37 10 21
19 45 19 55 0 19 29 58 42 58 5 0 8 -8 8 -18 0 -25 25 -58 34 -44 3 6 -1 17
-9 25 -20 21 -19 47 3 47 11 0 13 3 5 8 -13 8 -14 82 0 100 6 8 6 12 -2 12 -6
0 -11 -6 -11 -12 -1 -7 -11 0 -24 16 -18 22 -28 27 -43 21 -10 -5 -25 -9 -33
-10 -8 -1 -32 -5 -52 -9 -26 -6 -51 -3 -84 8 -56 19 -54 19 -54 6z m88 -193
c30 -27 35 -101 10 -159 -25 -59 -49 -68 -92 -37 -25 19 -43 23 -91 22 -33 -1
-66 3 -72 9 -19 15 -16 53 7 98 11 22 20 45 20 53 0 26 20 32 108 32 72 0 94
-4 110 -18z m-125 -231 c29 -23 21 -46 -16 -46 -49 0 -81 42 -39 53 29 8 36 7
55 -7z m-153 -1941 c75 -370 80 -408 80 -573 0 -91 -5 -143 -15 -173 -23 -66
-87 -199 -96 -199 -26 0 -28 948 -2 1017 7 19 19 -8 33 -72z m-2263 -297 c-3
-8 -6 -5 -6 6 -1 11 2 17 5 13 3 -3 4 -12 1 -19z m2453 -888 c0 -5 -7 -10 -15
-10 -8 0 -15 -7 -15 -15 0 -8 -4 -15 -10 -15 -15 0 -12 11 7 32 18 20 33 24
33 8z m490 -20 c0 -12 -17 -12 -45 0 -17 7 -15 9 13 9 17 1 32 -3 32 -9z
m-640 -40 c0 -5 -5 -10 -11 -10 -5 0 -7 5 -4 10 3 6 8 10 11 10 2 0 4 -4 4
-10z m940 6 c0 -11 -19 -15 -25 -6 -3 5 1 10 9 10 9 0 16 -2 16 -4z m-307 -13
c-7 -2 -19 -2 -25 0 -7 3 -2 5 12 5 14 0 19 -2 13 -5z m-953 -22 c0 -6 -4 -13
-10 -16 -5 -3 -10 1 -10 9 0 9 5 16 10 16 6 0 10 -4 10 -9z m-77 -61 c20 -24
21 -30 5 -30 -18 1 -53 50 -36 50 8 0 21 -9 31 -20z m457 -16 c0 -14 -12 -19
-23 -8 -9 9 4 35 14 28 5 -3 9 -12 9 -20z m-416 -73 c10 -11 28 -22 40 -25 20
-5 22 -11 20 -51 -2 -34 1 -45 12 -45 7 0 14 -7 14 -16 0 -13 -3 -14 -13 -5
-8 6 -17 8 -20 4 -4 -3 -7 10 -7 31 0 29 -5 38 -24 46 -23 8 -66 55 -66 71 0
16 26 10 44 -10z m317 -94 c-8 -8 -11 2 -10 34 l1 44 10 -34 c6 -23 6 -37 -1
-44z m-211 26 c0 -20 -3 -24 -11 -16 -7 7 -9 19 -6 27 10 24 17 19 17 -11z
m50 -39 c0 -8 -5 -12 -10 -9 -6 4 -8 11 -5 16 9 14 15 11 15 -7z m-1060 -14
c0 -5 -9 -10 -21 -10 -11 0 -17 5 -14 10 3 6 13 10 21 10 8 0 14 -4 14 -10z
m60 -20 c0 -5 -8 -10 -17 -10 -15 0 -16 2 -3 10 19 12 20 12 20 0z m741 0 c5
0 9 -4 9 -9 0 -12 -38 -2 -47 12 -4 7 0 8 11 4 10 -4 22 -7 27 -7z m409 -3 c0
-8 -18 -19 -40 -26 -32 -9 -48 -9 -75 0 -62 23 -42 37 53 38 46 1 62 -3 62
-12z m1555 -17 c-3 -5 -10 -10 -16 -10 -5 0 -9 5 -9 10 0 6 7 10 16 10 8 0 12
-4 9 -10z m-1475 -20 c3 -3 13 -9 23 -13 21 -8 23 -27 2 -27 -8 0 -15 5 -15
11 0 5 -13 15 -30 20 -35 13 -42 34 -7 23 12 -4 24 -10 27 -14z m1440 6 c0 -2
-7 -9 -15 -16 -12 -10 -15 -10 -15 4 0 9 7 16 15 16 8 0 15 -2 15 -4z m-1740
-32 c0 -8 -4 -12 -10 -9 -5 3 -10 13 -10 21 0 8 5 12 10 9 6 -3 10 -13 10 -21z
m70 4 c0 -18 -2 -20 -9 -8 -6 8 -7 18 -5 22 9 14 14 9 14 -14z m-214 -36 c-9
-8 -26 10 -26 26 1 15 2 15 15 -2 8 -11 13 -21 11 -24z m174 -12 c0 -5 -4 -10
-10 -10 -5 0 -10 5 -10 10 0 6 5 10 10 10 6 0 10 -4 10 -10z m-143 -26 c-9 -9
-28 6 -21 18 4 6 10 6 17 -1 6 -6 8 -13 4 -17z m-1127 6 c0 -5 -4 -10 -10 -10
-5 0 -10 5 -10 10 0 6 5 10 10 10 6 0 10 -4 10 -10z m1170 -30 c0 -5 -4 -10
-9 -10 -6 0 -13 5 -16 10 -3 6 1 10 9 10 9 0 16 -4 16 -10z m310 -50 c0 -19
-22 -21 -41 -4 -28 25 -23 34 11 23 17 -6 30 -15 30 -19z m1320 20 c0 -5 -4
-10 -10 -10 -5 0 -10 5 -10 10 0 6 5 10 10 10 6 0 10 -4 10 -10z m-1373 -56
c-3 -3 -12 -4 -19 -1 -8 3 -5 6 6 6 11 1 17 -2 13 -5z m1233 -18 c0 -3 -4 -8
-10 -11 -5 -3 -10 -1 -10 4 0 6 5 11 10 11 6 0 10 -2 10 -4z m-1256 -35 c4 -5
3 -17 -1 -27 -6 -16 -7 -16 -20 2 -7 10 -13 21 -13 26 0 11 27 10 34 -1z m126
-161 c0 -5 -4 -10 -9 -10 -6 0 -13 5 -16 10 -3 6 1 10 9 10 9 0 16 -4 16 -10z
m-635 -110 c-3 -5 -14 -10 -23 -10 -15 0 -15 2 -2 10 20 13 33 13 25 0z"/>
<path d="M1920 4670 c0 -5 7 -10 15 -10 8 0 15 5 15 10 0 6 -7 10 -15 10 -8 0
-15 -4 -15 -10z"/>
<path d="M2550 4650 c0 -16 -4 -30 -10 -30 -5 0 -10 -9 -10 -21 0 -23 21 -22
27 2 13 55 14 79 4 79 -6 0 -11 -13 -11 -30z"/>
<path d="M2610 4670 c0 -5 4 -10 9 -10 6 0 13 5 16 10 3 6 -1 10 -9 10 -9 0
-16 -4 -16 -10z"/>
<path d="M1690 4660 c20 -13 83 -13 75 0 -3 6 -25 10 -48 10 -31 0 -38 -3 -27
-10z"/>
<path d="M2011 4656 c9 -9 69 -14 69 -5 0 5 -16 9 -37 9 -20 0 -34 -2 -32 -4z"/>
<path d="M3820 4646 c0 -16 27 -29 41 -20 13 8 -9 34 -27 34 -8 0 -14 -6 -14
-14z"/>
<path d="M3893 4640 c1 -22 6 -24 24 -12 9 6 7 11 -7 20 -16 10 -18 9 -17 -8z"/>
<path d="M1893 4643 c-20 -7 -15 -23 7 -23 11 0 20 4 20 9 0 13 -12 19 -27 14z"/>
<path d="M2593 4643 c-15 -6 -17 -39 -3 -48 6 -3 15 6 20 20 14 38 13 41 -17
28z"/>
<path d="M1995 4600 c23 -11 61 -18 90 -18 l50 0 -51 13 c-29 7 -69 15 -90 18
l-39 6 40 -19z"/>
<path d="M3927 4613 c-4 -3 -7 -11 -7 -17 0 -6 5 -4 10 4 7 12 12 12 22 2 6
-6 19 -12 27 -12 11 0 10 4 -5 15 -21 16 -37 19 -47 8z"/>
<path d="M3890 4572 c0 -10 38 -42 50 -42 16 0 12 10 -12 31 -25 20 -38 24
-38 11z"/>
<path d="M3973 4573 c-16 -6 -17 -23 -2 -23 6 0 17 7 25 15 16 16 4 20 -23 8z"/>
<path d="M4000 4540 c0 -5 5 -10 10 -10 6 0 10 5 10 10 0 6 -4 10 -10 10 -5 0
-10 -4 -10 -10z"/>
<path d="M2220 4530 c0 -5 12 -10 26 -10 14 0 23 4 19 10 -3 6 -15 10 -26 10
-10 0 -19 -4 -19 -10z"/>
<path d="M2548 4534 c-14 -13 -9 -52 7 -58 8 -3 15 -15 15 -26 0 -11 5 -20 10
-20 15 0 12 36 -4 50 -8 6 -16 23 -18 37 -2 14 -6 21 -10 17z"/>
<path d="M4052 4527 c9 -10 22 -17 28 -17 8 0 7 -8 -4 -25 -9 -14 -12 -25 -6
-25 5 0 10 5 10 10 0 6 7 10 15 10 25 0 17 26 -12 41 -46 22 -48 23 -31 6z"/>
<path d="M2590 4519 c0 -5 5 -7 10 -4 6 3 10 8 10 11 0 2 -4 4 -10 4 -5 0 -10
-5 -10 -11z"/>
<path d="M2290 4510 c0 -5 12 -10 28 -10 21 0 24 2 12 10 -20 13 -40 13 -40 0z"/>
<path d="M2506 4513 c-11 -11 -6 -23 9 -23 8 0 15 4 15 9 0 13 -16 22 -24 14z"/>
<path d="M2370 4490 c0 -5 12 -12 28 -15 15 -4 35 -10 44 -16 10 -5 23 -9 30
-9 7 0 25 -7 41 -14 15 -8 27 -10 27 -5 0 10 -12 15 -105 50 -57 22 -65 23
-65 9z"/>
<path d="M3058 4425 c-2 -29 1 -45 8 -45 7 0 12 19 12 45 1 25 -3 45 -7 45 -5
0 -11 -20 -13 -45z"/>
<path d="M4110 4444 c-18 -17 -20 -24 -10 -24 9 0 23 9 33 20 32 38 15 41 -23
4z"/>
<path d="M4040 4440 c0 -5 5 -10 10 -10 6 0 10 5 10 10 0 6 -4 10 -10 10 -5 0
-10 -4 -10 -10z"/>
<path d="M4170 4432 c0 -4 9 -13 20 -20 22 -13 27 -3 8 16 -14 14 -28 16 -28
4z"/>
<path d="M4070 4400 c0 -5 5 -10 10 -10 6 0 10 5 10 10 0 6 -4 10 -10 10 -5 0
-10 -4 -10 -10z"/>
<path d="M4145 4400 c4 -6 11 -8 16 -5 14 9 11 15 -7 15 -8 0 -12 -5 -9 -10z"/>
<path d="M3100 4385 c0 -8 9 -15 20 -15 11 0 20 2 20 5 0 2 -9 9 -20 15 -16 9
-20 8 -20 -5z"/>
<path d="M4200 4380 c-13 -9 -13 -10 0 -10 8 0 22 5 30 10 13 9 13 10 0 10 -8
0 -22 -5 -30 -10z"/>
<path d="M4044 4359 c-10 -17 3 -22 42 -15 42 8 41 11 -3 19 -18 4 -35 2 -39
-4z"/>
<path d="M3228 4353 c12 -2 30 -2 40 0 9 3 -1 5 -23 4 -22 0 -30 -2 -17 -4z"/>
<path d="M3513 4353 c15 -2 37 -2 50 0 12 2 0 4 -28 4 -27 0 -38 -2 -22 -4z"/>
<path d="M3595 4330 c-3 -5 3 -10 15 -10 12 0 18 5 15 10 -3 6 -10 10 -15 10
-5 0 -12 -4 -15 -10z"/>
<path d="M3240 4321 c-43 -5 -19 -8 105 -13 152 -6 175 -5 163 7 -8 9 -210 13
-268 6z"/>
<path d="M3880 4320 c-12 -7 -8 -10 15 -10 17 0 37 5 45 10 12 7 8 10 -15 10
-16 0 -37 -5 -45 -10z"/>
<path d="M3713 4300 c-13 -5 -23 -12 -23 -15 0 -8 81 4 99 15 22 13 -45 12
-76 0z"/>
<path d="M3080 4278 c14 -5 66 -11 115 -13 56 -1 63 -1 18 2 -40 2 -73 8 -73
13 0 6 -19 10 -42 9 -40 0 -41 -1 -18 -11z"/>
<path d="M3550 4282 c0 -6 -10 -13 -22 -15 -13 -2 7 -5 44 -6 37 0 70 4 73 9
4 6 -6 10 -22 10 -15 0 -38 3 -50 6 -13 4 -23 2 -23 -4z"/>
</g>
</svg>
